<?xml version="1.0" encoding="UTF-8" standalone="no"?>
<!-- Created with Inkscape (http://www.inkscape.org/) -->

<svg
   width="180.27258mm"
   height="106.68793mm"
   viewBox="0 0 180.27259 106.68793"
   version="1.1"
   id="svg1"
   inkscape:version="1.4.2 (ebf0e940d0, 2025-05-08)"
   sodipodi:docname="ansible-skeletons.svg"
   inkscape:export-filename="ansible-skeletons.png"
   inkscape:export-xdpi="71.423264"
   inkscape:export-ydpi="71.423264"
   xmlns:inkscape="http://www.inkscape.org/namespaces/inkscape"
   xmlns:sodipodi="http://sodipodi.sourceforge.net/DTD/sodipodi-0.dtd"
   xmlns="http://www.w3.org/2000/svg"
   xmlns:svg="http://www.w3.org/2000/svg">
  <sodipodi:namedview
     id="namedview1"
     pagecolor="#ffffff"
     bordercolor="#000000"
     borderopacity="0.25"
     inkscape:showpageshadow="2"
     inkscape:pageopacity="0.0"
     inkscape:pagecheckerboard="0"
     inkscape:deskcolor="#d1d1d1"
     inkscape:document-units="mm"
     inkscape:zoom="1.0333894"
     inkscape:cx="140.31497"
     inkscape:cy="136.44421"
     inkscape:window-width="2560"
     inkscape:window-height="1371"
     inkscape:window-x="0"
     inkscape:window-y="0"
     inkscape:window-maximized="1"
     inkscape:current-layer="layer1"
     showguides="false" />
  <defs
     id="defs1" />
  <g
     inkscape:label="Layer 1"
     inkscape:groupmode="layer"
     id="layer1"
     transform="translate(-21.112623,-108.07121)">
    <text
       xml:space="preserve"
       style="font-size:15.5222px;line-height:1.5;font-family:'Standard Symbols PS';-inkscape-font-specification:'Standard Symbols PS';text-align:start;writing-mode:lr-tb;direction:ltr;text-anchor:start;fill:#000000;stroke:#ffffff;stroke-width:2.2;paint-order:markers stroke fill"
       x="81.418961"
       y="122.89655"
       id="text1"><tspan
         sodipodi:role="line"
         id="tspan1"
         style="stroke-width:2.2"
         x="81.418961"
         y="122.89655" /></text>
    <g
       id="g21"
       transform="matrix(0.83553468,0,0,0.83553468,398.9148,580.05788)">
      <path
         style="fill:#050604"
         d="m -427.19324,-437.20356 c -5.4573,2e-5 -12.70373,-10.18724 -10.88868,-17.7042 0.5401,-2.23683 0.57342,-2.15494 -1.25148,-3.07563 -12.97532,-6.54622 -11.29116,-24.80934 2.61788,-28.38835 4.78862,-1.23218 9.40812,0.0223 13.57042,3.68516 4.38873,3.86214 5.01315,3.83107 15.62784,-0.77753 21.11699,-9.16841 33.99896,-15.03234 33.99896,-15.47647 0,-0.32142 -4.387,-2.28202 -33.20521,-14.83983 -5.45703,-2.37795 -10.9848,-4.83839 -12.28392,-5.46764 -3.5861,-1.73698 -4.5809,-1.5722 -8.22129,1.36174 -8.64915,6.97071 -20.44888,3.95827 -24.13932,-6.16271 -2.36779,-6.49361 0.68961,-14.50507 6.92781,-18.1533 2.18959,-1.28053 2.09906,-1.08743 1.61303,-3.44042 -3.0886,-14.95289 13.84255,-25.44769 24.35803,-15.09836 3.11636,3.06712 4.56992,6.92487 4.59268,12.18896 0.02,4.62655 1.11908,6.23846 5.63282,8.26112 1.63645,0.73332 5.41615,2.4268 8.39932,3.76329 2.98318,1.3365 11.79381,5.22718 19.57917,8.64595 7.78536,3.41877 18.88508,8.29549 24.66604,10.83715 5.78095,2.54166 10.90064,4.6835 11.37708,4.75966 0.99857,0.15962 2.28045,-0.35803 17.79958,-7.18783 5.5298,-2.4336 11.24479,-4.93207 12.7,-5.55215 1.45521,-0.62008 6.27724,-2.75834 10.71563,-4.75168 4.43839,-1.99334 11.16542,-4.98673 14.94896,-6.65197 13.62981,-5.99885 13.32578,-5.73589 13.73237,-11.87708 0.23099,-3.48895 0.74727,-5.84906 1.72163,-7.87022 7.4173,-15.38605 30.7383,-5.79179 26.51519,10.90835 -0.75082,2.96907 -0.81703,2.77999 1.35633,3.87336 2.4464,1.23073 5.57069,4.30747 6.64103,6.53996 7.23203,15.0844 -10.44824,28.78534 -23.20492,17.98215 -4.84667,-4.10447 -3.78728,-4.19741 -15.64913,1.37288 -3.4925,1.64007 -8.33421,3.83272 -10.75936,4.87257 -10.27045,4.4037 -26.54689,11.87884 -26.54689,12.19195 0,0.36088 6.31199,3.32378 15.34584,7.20347 7.41506,3.18449 12.67363,5.56707 19.05,8.63125 7.30871,3.51223 8.74201,3.51694 12.56771,0.0413 6.53366,-5.93582 14.68717,-5.77302 20.72766,0.41387 6.87286,7.03944 4.83259,18.73892 -4.1238,23.64694 -2.50658,1.37359 -2.40507,1.20291 -1.92545,3.2374 2.68959,11.40887 -9.08891,21.45481 -19.88453,16.9596 -5.77761,-2.40575 -8.73512,-6.71322 -9.31657,-13.56909 -0.46884,-5.52823 -1.45955,-6.84955 -6.92605,-9.23734 -1.80939,-0.79035 -5.66068,-2.55615 -8.55842,-3.924 -2.89773,-1.36786 -7.90207,-3.65281 -11.12073,-5.07769 -3.21867,-1.42487 -9.53935,-4.2579 -14.04597,-6.29561 -24.63244,-11.1378 -20.09928,-10.1471 -28.69906,-6.27207 -1.38245,0.62292 -6.20448,2.76378 -10.71563,4.75746 -17.10053,7.55749 -22.40471,9.93559 -28.31041,12.69279 -3.34698,1.56261 -8.2092,3.78349 -10.80493,4.93529 -7.05541,3.1307 -7.21639,3.30477 -7.61158,8.23079 -0.85022,10.59781 -9.53459,14.85673 -15.10142,14.85675 z m 5.27374,-5.95492 c 4.77602,-0.87998 7.51061,-4.31641 7.52954,-9.46205 0.0229,-6.23674 2.50429,-9.09005 11.30271,-12.99706 2.875,-1.27666 8.02525,-3.6027 11.44499,-5.16897 7.10348,-3.25345 14.27594,-6.46354 30.82395,-13.79551 6.40292,-2.83696 13.18948,-5.85475 15.08125,-6.70619 1.89177,-0.85145 6.05896,-2.69787 9.26042,-4.10316 3.20146,-1.40529 6.7138,-2.95217 7.80521,-3.4375 1.0914,-0.48532 8.11609,-3.5574 15.61041,-6.82684 16.44875,-7.17584 33.61819,-14.80028 39.02605,-17.3303 7.90187,-3.69682 10.01602,-3.63073 14.9561,0.46756 7.65886,6.35381 17.41261,3.06885 16.86175,-5.67885 -0.33718,-5.35444 -3.79215,-8.37343 -11.22799,-9.81114 -1.80307,-0.34862 -1.7989,-1.65235 0.0151,-4.71794 4.23024,-7.14892 1.50799,-14.12146 -5.80658,-14.87247 -5.6925,-0.58446 -9.37442,3.56844 -9.37442,10.57357 0,7.42809 -1.62956,8.89336 -17.85938,16.05892 -4.36562,1.92745 -10.31874,4.56967 -13.22916,5.8716 -9.68902,4.33422 -21.62147,9.63167 -28.17813,12.50976 -5.79953,2.54575 -28.52897,12.65293 -53.975,24.00126 -18.12753,8.08446 -30.75584,13.55841 -32.94062,14.27866 -3.94849,1.3017 -7.50621,0.23867 -11.62603,-3.47381 -5.47084,-4.92994 -12.25156,-4.02119 -15.11201,2.0253 -2.92906,6.19151 1.04797,12.13085 8.92076,13.32236 3.65726,0.55351 3.78463,0.96525 1.61556,5.22248 -3.68736,7.23715 -0.55038,13.45099 7.22344,14.30846 0.15517,0.0171 0.98861,-0.0991 1.85208,-0.25814 z m 158.7813,-1.03797 c 5.33466,-2.62624 6.61522,-8.55877 3.13076,-14.50409 -1.27985,-2.18375 -1.13627,-3.26812 0.47691,-3.60177 0.31725,-0.0656 1.49482,-0.29528 2.61682,-0.51037 11.94465,-2.28973 11.43577,-17.94776 -0.5848,-17.99412 -2.73573,-0.0105 -4.03695,0.56757 -6.79525,3.01906 -3.06186,2.72129 -6.21897,3.91781 -9.52323,3.60926 -1.64404,-0.15353 -3.11338,-0.74758 -10.40444,-4.20649 -4.43095,-2.10207 -8.40937,-3.90808 -19.97605,-9.06814 -5.96635,-2.66168 -12.25646,-5.50636 -13.97802,-6.32151 -1.72155,-0.81516 -3.41509,-1.4821 -3.76342,-1.4821 -1.51418,0 -14.14085,5.64163 -14.14085,6.31817 0,0.27363 7.73078,3.84539 21.56354,9.96275 5.82084,2.57418 13.67896,6.11277 17.46251,7.86353 3.78354,1.75076 8.71312,4.00289 10.95461,5.00473 7.76483,3.47051 10.07977,6.43706 10.07977,12.91705 0,7.79781 6.33128,12.21853 12.88114,8.99404 z m -96.88419,-60.41607 c 9.11532,-3.81199 8.95521,-3.71755 7.69822,-4.54116 -0.86734,-0.56831 -7.38507,-3.55698 -18.49126,-8.47908 -5.1246,-2.27114 -11.04386,-4.90306 -13.15392,-5.84869 -2.11005,-0.94564 -6.3963,-2.82724 -9.525,-4.18134 -20.13587,-8.71477 -21.66805,-9.4797 -23.46347,-11.71386 -1.91544,-2.38351 -2.72906,-4.95716 -2.73341,-8.64632 -0.008,-6.51843 -3.26336,-10.47372 -8.65102,-10.51005 -7.80972,-0.0527 -11.61258,7.86284 -7.3287,15.25442 1.98382,3.42298 1.7742,3.97635 -1.79472,4.73789 -9.8989,2.11223 -12.29519,13.58739 -3.71702,17.79975 3.51268,1.72492 7.41542,0.90007 10.98514,-2.32173 2.63952,-2.38226 4.0626,-3.01289 6.80529,-3.01569 2.6666,-0.003 2.24538,-0.16066 17.4625,6.54719 9.8673,4.34959 12.10055,5.32479 27.38437,11.95797 3.92906,1.70521 8.15578,3.55477 9.39271,4.11012 3.06289,1.37517 3.10655,1.36968 9.13029,-1.14942 z"
         id="path4-2-0"
         sodipodi:nodetypes="sssssssssssssssssssssssssssssssssssssssssssssssssssscssssssssssssssssssssssssscssssssssssssssssssssssscssssscssss" />
    </g>
    <path
       style="fill:#1a1a1a;fill-opacity:0.945098;fill-rule:nonzero;stroke:none;stroke-width:2.14353;stroke-miterlimit:4;stroke-dasharray:2.14353, 4.28705;stroke-dashoffset:0;stroke-opacity:1"
       d=""
       id="path6839"
       inkscape:connector-curvature="0" />
    <g
       id="g6"
       transform="matrix(0.82762617,0,0,0.82762617,22.530462,-8.4654467)">
      <g
         id="g5">
        <path
           d="m 62.833791,148.18106 v 57.38057 57.38057 h 44.270919 44.27144 l -0.005,-51.15218 h -5.2e-4 l -0.005,-51.1527 -8.9229,-6.22786 -8.92289,-6.2284 H 98.176428 Z"
           style="fill:#ffffff;fill-opacity:1;stroke-width:0.639141;stroke-dasharray:0.639141, 1.27828"
           id="path4" />
        <path
           inkscape:connector-curvature="0"
           id="path9401"
           d="m 56.748235,268.27982 c -0.153063,-8.06072 0.05322,-125.80557 0.220879,-126.07685 0.153284,-0.24801 14.76967,-0.3921 39.776093,-0.3921 h 39.533773 l 10.23818,7.15025 c 5.631,3.93264 10.46701,7.23834 10.74669,7.346 0.40486,0.15584 0.48755,11.61855 0.40567,56.23556 l -0.10284,56.03981 -50.40439,0.103 c -40.187476,0.0821 -50.406353,-1.1e-4 -50.414055,-0.40567 z m 94.525285,-56.79527 -0.005,-50.81006 -8.87123,-6.18646 -8.87121,-6.18645 H 98.387177 63.248583 v 56.99652 56.99651 h 44.015107 44.0151 l -0.005,-50.81006 z"
           style="fill:#ff0000;fill-opacity:1;fill-rule:nonzero;stroke:none;stroke-width:0.635154;stroke-miterlimit:4;stroke-dasharray:0.635154, 1.2703;stroke-dashoffset:0;stroke-opacity:1" />
      </g>
      <g
         id="g1"
         transform="translate(-4.0526231,96.470947)">
        <rect
           ry="1.6201183"
           y="75.984558"
           x="87.546097"
           height="6.8844337"
           width="57.657131"
           id="rect6848-2"
           style="fill:#1a1a1a;fill-opacity:0.945098;fill-rule:nonzero;stroke:none;stroke-width:0.635154;stroke-miterlimit:4;stroke-dasharray:0.635154, 1.2703;stroke-dashoffset:0;stroke-opacity:1" />
        <rect
           ry="1.6201183"
           y="86.884895"
           x="104.75717"
           height="6.8844337"
           width="40.732903"
           id="rect6848-2-4"
           style="fill:#1a1a1a;fill-opacity:0.945098;fill-rule:nonzero;stroke:none;stroke-width:0.635154;stroke-miterlimit:4;stroke-dasharray:0.635154, 1.2703;stroke-dashoffset:0;stroke-opacity:1" />
        <rect
           ry="1.6201183"
           y="98.358948"
           x="77.506294"
           height="6.8844337"
           width="67.98378"
           id="rect6848-2-1"
           style="fill:#1a1a1a;fill-opacity:0.945098;fill-rule:nonzero;stroke:none;stroke-width:0.635154;stroke-miterlimit:4;stroke-dasharray:0.635154, 1.2703;stroke-dashoffset:0;stroke-opacity:1" />
        <rect
           transform="scale(-1)"
           ry="1.6201183"
           y="-138.58983"
           x="-134.94829"
           height="6.8844337"
           width="57.657131"
           id="rect6848-2-9"
           style="fill:#1a1a1a;fill-opacity:0.945098;fill-rule:nonzero;stroke:none;stroke-width:0.635154;stroke-miterlimit:4;stroke-dasharray:0.635154, 1.2703;stroke-dashoffset:0;stroke-opacity:1" />
        <rect
           transform="scale(-1)"
           ry="1.6201183"
           y="-127.68948"
           x="-117.73721"
           height="6.8844337"
           width="40.732903"
           id="rect6848-2-4-5"
           style="fill:#1a1a1a;fill-opacity:0.945098;fill-rule:nonzero;stroke:none;stroke-width:0.635154;stroke-miterlimit:4;stroke-dasharray:0.635154, 1.2703;stroke-dashoffset:0;stroke-opacity:1" />
        <rect
           transform="scale(-1)"
           ry="1.6201183"
           y="-116.21541"
           x="-144.98807"
           height="6.8844337"
           width="67.98378"
           id="rect6848-2-1-3"
           style="fill:#1a1a1a;fill-opacity:0.945098;fill-rule:nonzero;stroke:none;stroke-width:0.635154;stroke-miterlimit:4;stroke-dasharray:0.635154, 1.2703;stroke-dashoffset:0;stroke-opacity:1" />
      </g>
    </g>
    <path
       style="fill:#ffffff;stroke:none;stroke-width:8.0463;paint-order:markers stroke fill"
       d="m 146.1211,142.63187 c -44.81166,-19.74931 -48.628138,-21.10896 -57.249665,-20.39565 -7.561645,0.62562 -12.138111,2.74684 -19.300592,8.94589 -14.963737,12.95098 -30.845326,13.55046 -42.941637,1.62092 -11.303518,-11.14766 -10.242052,-28.8373 2.413123,-40.215392 4.696915,-4.22293 9.481051,-6.523923 20.793675,-10.00099 5.336673,-1.640288 5.829863,-2.028256 6.099574,-4.798238 0.201078,-2.065093 -1.017262,-5.56782 -3.870757,-11.128428 -4.088537,-7.967337 -4.164196,-8.290592 -4.164196,-17.791668 0,-8.08061 0.345176,-10.315407 2.092504,-13.547651 5.001257,-9.251433 14.119456,-14.508604 25.002799,-14.415566 7.901319,0.06755 12.260031,1.691762 17.6797,6.588108 5.874873,5.307595 7.990142,11.339156 9.480622,27.033395 1.41138,14.861336 3.19815,19.971725 9.59621,27.446417 4.19449,4.900319 16.80468,11.476947 47.91629,24.989913 11.97516,5.20127 22.10849,9.74727 22.51853,10.10223 0.41004,0.35495 0.62777,9.85109 0.48384,21.10252 l -0.26167,20.45714 z"
       id="path1"
       transform="matrix(0.26458333,0,0,0.26458333,21.112623,108.07121)" />
    <path
       style="fill:#ffffff;stroke:none;stroke-width:8.0463;paint-order:markers stroke fill"
       d="m 499.32773,139.0126 v -20.65615 l 18.14417,-7.99802 c 40.46589,-17.837496 53.64521,-25.533486 58.80574,-34.339264 2.20026,-3.754457 2.73582,-6.321722 3.82772,-18.348669 1.4042,-15.466851 3.48748,-21.793244 8.98771,-27.293483 9.1383,-9.138296 25.28369,-9.213622 35.56243,-0.165916 10.47773,9.222865 11.35804,20.845309 2.9039,38.339176 -4.4261,9.158774 -5.35145,13.665359 -3.15782,15.378936 0.66529,0.519694 4.1457,1.665708 7.73424,2.546698 20.19822,4.958671 30.06499,15.145282 30.15533,31.132852 0.0978,17.29623 -13.35861,28.45994 -30.86942,25.60999 -7.1903,-1.17025 -13.96788,-4.40985 -22.26126,-10.64058 -3.7256,-2.79901 -8.51566,-5.89514 -10.64458,-6.88026 -4.42073,-2.04566 -13.39284,-2.39744 -19.35379,-0.75885 -2.12891,0.58522 -16.93456,6.95056 -32.90144,14.1452 -29.07472,13.10103 -46.02189,20.58449 -46.61596,20.58449 -0.17434,0 -0.31697,-9.29527 -0.31697,-20.65615 z"
       id="path2"
       transform="matrix(0.26458333,0,0,0.26458333,21.112623,108.07121)" />
    <path
       style="fill:#ffffff;stroke:none;stroke-width:8.0463;paint-order:markers stroke fill"
       d="m 575.98981,382.80732 c -5.60274,-1.8265 -10.49066,-5.7278 -13.88788,-11.08466 -3.65321,-5.76052 -4.64179,-9.63053 -5.67577,-22.21914 -1.72665,-21.02173 -7.04194,-26.65025 -39.12646,-41.43219 l -17.48813,-8.05711 -0.26129,-20.38115 c -0.2467,-19.24201 -0.16557,-20.33001 1.45153,-19.46619 9.16204,4.89413 53.97231,24.7468 58.44108,25.89165 11.39782,2.91998 21.34653,-0.3287 35.54596,-11.60728 8.51981,-6.76728 12.26199,-8.32271 20.04405,-8.33127 11.0316,-0.0121 20.36158,5.08224 25.15495,13.73518 3.75968,6.78694 4.04942,17.1942 0.66961,24.05225 -4.76426,9.6673 -11.73404,14.52844 -25.94289,18.09417 -10.51469,2.63867 -10.59471,2.68055 -10.88787,5.69724 -0.19545,2.01115 0.85806,5.30224 3.11481,9.73047 6.27582,12.31453 6.86224,22.19007 1.86308,31.37518 -3.16931,5.82307 -6.77998,9.0562 -13.63082,12.2056 -6.27282,2.88368 -13.88604,3.58956 -19.38396,1.79725 z"
       id="path3"
       transform="matrix(0.26458333,0,0,0.26458333,21.112623,108.07121)" />
    <path
       style="fill:#ffffff;stroke:none;stroke-width:8.0463;paint-order:markers stroke fill"
       d="m 84.212438,383.53725 c -20.33524,-5.26564 -26.648357,-21.79144 -16.631621,-43.53649 4.426914,-9.61026 4.98653,-13.30846 2.236558,-14.7802 -0.985402,-0.52737 -5.013409,-1.62812 -8.951127,-2.44611 -24.215811,-5.03042 -35.294139,-21.84235 -26.704695,-40.52575 3.256944,-7.08437 6.727291,-10.80018 12.913346,-13.82674 10.61824,-5.19502 21.737781,-2.76366 34.213493,7.48099 13.026994,10.69735 23.323298,14.05105 34.381968,11.19885 4.64983,-1.19927 29.43491,-11.52382 62.14257,-25.88632 l 4.11268,-1.80594 v 20.60959 20.60959 l -17.66034,8.00603 c -37.59954,17.04514 -43.55958,22.84105 -45.29944,44.05199 -0.87319,10.64519 -1.97804,14.66762 -5.50368,20.03711 -5.73559,8.73524 -18.727161,13.53811 -29.249712,10.8134 z"
       id="path5"
       transform="matrix(0.26458333,0,0,0.26458333,21.112623,108.07121)" />
  </g>
</svg>
